# AST/ASF file generated using VICON BodyLanguage
# -----------------------------------------------
:version 1.10
:name VICON
:units
  mass 1.0
  length 0.45
  angle deg
:documentation
   .ast/.asf automatically generated from VICON data using
   VICON BodyBuilder and BodyLanguage model FoxedUp or BRILLIANT.MOD
:root
   order TX TY TZ RX RY RZ
   axis XYZ
   position 0 0 0  
   orientation 0 0 0 
:bonedata
  begin
     id 1 
     name lhipjoint
     direction 0.602128 -0.715006 0.355257 
     length 2.21237 
     axis 0 0 0  XYZ
  end
  begin
     id 2 
     name lfemur
     direction 0.34202 -0.939693 0  
     length 6.71649  
     axis 0 0 20  XYZ
    dof rx ry rz
    limits (-160.0 20.0)
           (-70.0 70.0)
           (-60.0 70.0)
  end
  begin
     id 3 
     name ltibia
     direction 0.34202 -0.939693 0   
     length 6.97123   
     axis 0 0 20   XYZ
    dof rx
    limits (-10.0 170.0)
  end
  begin
     id 4 
     name lfoot
     direction 0.0655697 -0.180151 0.981451   
     length 1.80924   
     axis -90 7.62852e-016 20   XYZ
    dof rx rz
    limits (-45.0 90.0)
           (-70.0 20.0)
  end
  begin
     id 5 
     name ltoes
     direction 1.53545e-011 -4.21827e-011 1   
     length 0.916331   
     axis -90 7.62852e-016 20   XYZ
    dof rx
    limits (-90.0 20.0)
  end
  begin
     id 6 
     name rhipjoint
     direction -0.625414 -0.698792 0.347201   
     length 2.2637  
     axis 0 0 0  XYZ 
  end
  begin
     id 7 
     name rfemur
     direction -0.34202 -0.939693 0   
     length 7.07595   
     axis 0 0 -20   XYZ
    dof rx ry rz
    limits (-160.0 20.0)
           (-70.0 70.0)
           (-70.0 60.0)
  end
  begin
     id 8 
     name rtibia
     direction -0.34202 -0.939693 0   
     length 7.22924   
     axis 0 0 -20   XYZ
    dof rx
    limits (-10.0 170.0)
 end
 begin
     id 9 
     name rfoot
     direction -0.0766747 -0.210662 0.974547   
     length 1.98482  
     axis -90 -7.62852e-016 -20   XYZ
    dof rx rz
    limits (-45.0 90.0)
           (-20.0 70.0)
  end
  begin
     id 10 
     name rtoes
     direction -1.53532e-011 -4.21867e-011 1   
     length 0.999842   
     axis -90 -7.62852e-016 -20   XYZ
    dof rx
    limits (-90.0 20.0)
  end
  begin
     id 11 
     name lowerback
     direction -0.0224668 0.997354 -0.0691422   
     length 2.09945   
     axis 0 0 0   XYZ
    dof rx ry rz
    limits (-20.0 45.0)
           (-30.0 30.0)
           (-30.0 30.0)
  end
  begin
     id 12 
     name upperback
     direction 0.0134698 0.998451 -0.0539888   
     length 2.09758   
     axis 0 0 0   XYZ
    dof rx ry rz
    limits (-20.0 45.0)
           (-30.0 30.0)
           (-30.0 30.0)
  end
  begin
     id 13 
     name thorax
     direction 0.0241905 0.99948 -0.0213333   
     length 2.10428   
     axis 0 0 0   XYZ
    dof rx ry rz
    limits (-20.0 45.0)
           (-30.0 30.0)
           (-30.0 30.0)
  end
  begin
     id 14 
     name lowerneck
     direction -0.00866847 0.995978 0.0891737   
     length 1.3959   
     axis 0 0 0   XYZ
    dof rx ry rz
    limits (-20.0 45.0)
           (-30.0 30.0)
           (-30.0 30.0)
  end
  begin
     id 15 
     name upperneck
     direction 0.0680679 0.992203 0.104404   
     length 1.39452   
     axis 0 0 0   XYZ
    dof rx ry rz
    limits (-20.0 45.0)
           (-30.0 30.0)
           (-30.0 30.0)
  end
  begin
     id 16
     name head
     direction 0.0242216 0.999358 0.0264054  
     length 1.40433  
     axis 0 0 0   XYZ
    dof rx ry rz
    limits (-20.0 45.0)
           (-30.0 30.0)
           (-30.0 30.0)
  end
  begin
     id 17 
     name lclavicle
     direction 0.929368 0.362991 -0.0671771  
     length 3.04887  
     axis 0 0 0   XYZ
    dof ry rz
    limits (-20.0 10.0)
           (0.0 20.0)
  end
  begin
     id 18 
     name lhumerus
     direction 1 -4.48967e-011 -7.13741e-028   
     length 4.77195   
     axis -180 -30 -90   XYZ
    dof rx ry rz
    limits (-60.0 90.0)
           (-90.0 90.0)
           (-90.0 90.0)
  end
  begin
     id 19
     name lradius
     direction 1 -4.48977e-011 3.60404e-027   
     length 2.98444   
     axis -180 -30 -90   XYZ
    dof rx
    limits (-10.0 170.0)
  end
  begin
     id 20
     name lwrist
     direction 1 -4.48997e-011 7.54877e-027   
     length 1.49222   
     axis -7.18178e-015 90 90   XYZ
    dof ry
    limits (-180.0 0.0)
 end
  begin
     id 21 
     name lhand
     direction 1 -4.489e-011 1.51105e-026   
     length 0.992285   
     axis -9.63605e-015 90 90   XYZ
    dof rx rz
    limits (-90.0 90.0)
           (-45.0 45.0)
  end
  begin
     id 22 
     name lfingers
     direction 1 -4.48998e-011 3.01948e-026   
     length 0.800006   
     axis -1.92718e-014 90 90   XYZ
    dof rx
    limits (0.0 90.0)
  end
  begin
     id 23
     name lthumb
     direction 0.707107 -6.34881e-011 0.707107   
     length 1.14865   
     axis -90 45 -3.53137e-014   XYZ
    dof rx rz
    limits (-45.0 45.0)
           (-45.0 45.0)
  end
  begin
     id 24 
     name rclavicle
     direction -0.945672 0.324529 0.0196374   
     length 3.4236  
     axis 0 0 0   XYZ 
    dof ry rz
    limits (-10.0 20.0)
           (-20.0 0.0)
  end
  begin
     id 25 
     name rhumerus
     direction -1 -4.4896e-011 1.02757e-029  
     length 4.62052   
     axis -180 30 90   XYZ
    dof rx ry rz
    limits (-90.0 60.0)
           (-90.0 90.0)
           (-90.0 90.0)
  end
  begin
     id 26 
     name rradius
     direction -1 -4.48982e-011 3.85962e-027   
     length 2.95332   
     axis -180 30 90   XYZ
    dof rx
    limits (-10.0 170.0)
  end
  begin
     id 27 
     name rwrist
     direction -1 -4.48961e-011 7.55118e-027   
     length 1.47666   
     axis -7.18178e-015 -90 -90   XYZ
    dof ry
    limits (-180.0 0.0)
  end
  begin
     id 28
     name rhand
     direction -1 -4.48984e-011 1.50994e-026   
     length 0.990956   
     axis -9.63605e-015 -90 -90   XYZ
    dof rx rz
    limits (-90.0 90.0)
           (-45.0 45.0)
  end
  begin
     id 29
     name rfingers
     direction -1 -4.4892e-011 3.02158e-026   
     length 0.798934   
     axis -1.92718e-014 -90 -90   XYZ
    dof rx
    limits (0.0 90.0)
  end
  begin
     id 30
     name rthumb
     direction -0.707107 -6.34916e-011 0.707107   
     length 1.14711   
     axis -90 -45 3.53137e-014   XYZ
    dof rx rz
    limits (-45.0 45.0)
           (-45.0 45.0)
  end
:hierarchy
  begin
    root lhipjoint rhipjoint lowerback
    lhipjoint lfemur
    lfemur ltibia
    ltibia lfoot
    lfoot ltoes
    rhipjoint rfemur
    rfemur rtibia
    rtibia rfoot
    rfoot rtoes
    lowerback upperback
    upperback thorax
    thorax lowerneck lclavicle rclavicle
    lowerneck upperneck
    upperneck head
    lclavicle lhumerus
    lhumerus lradius
    lradius lwrist
    lwrist lhand lthumb
    lhand lfingers
    rclavicle rhumerus
    rhumerus rradius
    rradius rwrist
    rwrist rhand rthumb
    rhand rfingers
  end

#!OML:ASF H:\ManfredObstacles\Project 1\Capture day 1\Session 1\Male.ASF
:FULLY-SPECIFIED
:DEGREES
235
root -1.69387 15.8855 29.0635 -167.263 -23.6138 -176.815
lowerback -6.30845 0.33299 -0.163628
upperback 2.14369 0.503759 -1.05544
thorax 5.77964 0.257663 -0.950332
lowerneck -1.31736 -0.42734 -4.492
upperneck 0.534905 -0.642559 7.80464
head 0.44411 -0.323078 3.29165
rclavicle 8.74653e-015 -1.27222e-014
rhumerus -35.1114 -15.0608 -82.1946
rradius 32.5467
rwrist 28.2491
rhand 1.4626 -7.05484
rfingers 7.12502
rthumb 26.9905 -35.1467
lclavicle 8.74653e-015 -1.27222e-014
lhumerus -25.8976 15.6224 77.5695
lradius 19.0307
lwrist -30.29
lhand -8.18702 7.57102
lfingers 7.12502
lthumb 17.7289 36.7828
rfemur -28.7952 -13.3158 29.1463
rtibia 38.0234
rfoot -29.7156 3.16766
rtoes 5.30841
lfemur -41.7148 4.31611 -23.047
ltibia 37.0172
lfoot -13.4277 6.14035
ltoes -5.87238
236
root -1.73314 15.8904 28.9537 -167.66 -23.8986 -176.478
lowerback -6.37872 0.543296 -0.244396
upperback 2.13056 0.788911 -0.965535
thorax 5.80801 0.394371 -0.778739
lowerneck -1.0894 -0.370511 -4.34544
upperneck 0.479082 -0.566395 7.61515
head 0.37936 -0.288932 3.19875
rclavicle 3.49861e-014 3.18055e-015
rhumerus -35.0114 -14.6322 -82.1627
rradius 32.5955
rwrist 28.0137
rhand 1.64947 -6.92234
rfingers 7.12502
rthumb 27.1693 -34.9864
lclavicle 3.49861e-014 3.18055e-015
lhumerus -26.6379 15.6189 77.1813
lradius 19.3069
lwrist -30.016
lhand -8.23397 7.85328
lfingers 7.12502
lthumb 17.6837 37.0691
rfemur -27.8992 -13.4874 29.3474
rtibia 37.8602
rfoot -30.2147 3.08105
rtoes 3.75893
lfemur -40.9344 5.11664 -23.0217
ltibia 37.0151
lfoot -12.235 8.39387
ltoes -7.91681
237
root -1.7765 15.8735 28.8399 -167.937 -24.2162 -176.15
lowerback -6.62279 0.688289 -0.368676
upperback 2.10387 0.992628 -0.881632
thorax 5.91825 0.489239 -0.595819
lowerneck -1.21881 -0.212574 -4.22855
upperneck 0.711304 -0.36502 7.55393
head 0.461781 -0.18347 3.15753
rclavicle -2.5842e-015 -7.15625e-015
rhumerus -34.9368 -14.1157 -82.1826
rradius 32.8363
rwrist 27.6698
rhand 1.72969 -6.88764
rfingers 7.12502
rthumb 27.2461 -34.9397
lclavicle -2.5842e-015 -7.15625e-015
lhumerus -27.3719 15.8824 76.6546
lradius 19.6237
lwrist -29.7716
lhand -8.09921 7.94788
lfingers 7.12502
lthumb 17.8134 37.152
rfemur -27.1729 -13.561 29.5645
rtibia 37.7936
rfoot -30.6155 2.71302
rtoes 1.71324
lfemur -40.425 5.82653 -22.9875
ltibia 37.0079
lfoot -12.3692 6.7024
ltoes -8.98669
238
root -1.82474 15.8525 28.7251 -168.071 -24.7507 -176.042
lowerback -6.93942 0.82045 -0.557677
upperback 2.04202 1.19245 -0.939464
thorax 6.03336 0.581521 -0.522559
lowerneck -1.29828 -0.10161 -4.28083
upperneck 0.811663 -0.224799 7.73088
head 0.4994 -0.111746 3.23
rclavicle 2.90226e-014 7.95139e-015
rhumerus -34.9925 -14.024 -82.1024
rradius 33.1528
rwrist 27.5661
rhand 1.88632 -6.77967
rfingers 7.12502
rthumb 27.3959 -34.8081
lclavicle 2.90226e-014 7.95139e-015
lhumerus -28.074 15.6315 76.1691
lradius 19.944
lwrist -29.1749
lhand -8.18789 7.79666
lfingers 7.12502
lthumb 17.728 37.0085
rfemur -26.4793 -13.5211 29.5483
rtibia 37.752
rfoot -31.1127 2.10497
rtoes -0.0793297
lfemur -40.0258 6.20483 -23.1009
ltibia 37.1487
lfoot -12.42 5.72273
ltoes -9.55363
239
root -1.87466 15.8425 28.6131 -168.378 -25.4989 -175.994
lowerback -7.06533 0.913352 -0.766191
upperback 2.04643 1.34061 -1.01214
thorax 6.10807 0.647249 -0.461405
lowerneck -1.2718 0.00834077 -4.03288
upperneck 0.883204 -0.0934026 7.79558
head 0.508296 -0.0472322 3.20606
rclavicle 3.65764e-014 -1.74931e-014
rhumerus -35.0444 -14.2168 -81.9175
rradius 33.4977
rwrist 27.4677
rhand 2.07847 -6.66696
rfingers 7.12502
rthumb 27.5796 -34.6662
lclavicle 3.65764e-014 -1.74931e-014
lhumerus -28.6818 15.4408 75.6893
lradius 20.184
lwrist -28.6769
lhand -8.37872 7.67267
lfingers 7.12502
lthumb 17.5444 36.901
rfemur -25.6222 -13.2855 29.3998
rtibia 37.873
rfoot -31.8284 1.2046
rtoes -1.22087
lfemur -39.3697 6.21879 -23.1118
ltibia 37.317
lfoot -12.7571 4.78562
ltoes -9.60485
240
root -1.91895 15.8333 28.5107 -168.86 -26.4562 -175.709
lowerback -6.99237 0.984987 -0.784178
upperback 2.0588 1.43819 -1.04191
thorax 6.08018 0.695102 -0.471623
lowerneck -1.17822 0.11478 -3.66904
upperneck 0.711888 0.0429956 7.82875
head 0.428024 0.0149622 3.14799
rclavicle 4.51241e-014 -8.74653e-015
rhumerus -35.1735 -14.6476 -81.71
rradius 33.9214
rwrist 27.23
rhand 1.8845 -6.78716
rfingers 7.12502
rthumb 27.3941 -34.8159
lclavicle 4.51241e-014 -8.74653e-015
lhumerus -29.1151 15.5024 75.1275
lradius 20.277
lwrist -28.4772
lhand -8.44991 7.86489
lfingers 7.12502
lthumb 17.4759 37.0994
rfemur -24.8575 -12.8823 29.5041
rtibia 38.1918
rfoot -32.5073 -0.0837324
rtoes -2.43171
lfemur -38.7752 5.90363 -22.7274
ltibia 37.5889
lfoot -13.0231 3.81492
ltoes -10.4712
241
root -1.96042 15.8202 28.416 -169.126 -27.7282 -175.623
lowerback -6.93671 0.950615 -0.955943
upperback 2.00562 1.4088 -1.10421
thorax 5.98979 0.675344 -0.445089
lowerneck -1.20935 0.206014 -3.37446
upperneck 0.720457 0.151342 7.9211
head 0.429166 0.0676137 3.12443
rclavicle 3.83654e-014 8.74653e-015
rhumerus -35.4389 -15.2106 -81.3592
rradius 34.2668
rwrist 27.1166
rhand 1.43061 -6.81483
rfingers 7.12502
rthumb 26.9599 -34.9114
lclavicle 3.83654e-014 8.74653e-015
lhumerus -29.4715 15.7047 74.5261
lradius 20.2232
lwrist -28.5404
lhand -8.53916 8.2344
lfingers 7.12502
lthumb 17.39 37.4765
rfemur -24.4382 -12.6532 29.502
rtibia 38.7975
rfoot -33.1326 -1.42292
rtoes -3.71378
lfemur -38.3787 5.21003 -22.4615
ltibia 37.9279
lfoot -13.1829 2.60588
ltoes -9.38789
242
root -2.0079 15.7969 28.3252 -169.242 -29.1141 -175.825
lowerback -6.91832 0.891277 -1.23204
upperback 1.95168 1.35837 -1.24398
thorax 5.91972 0.642098 -0.442594
lowerneck -1.14336 0.330759 -3.20772
upperneck 0.6685 0.307928 8.09423
head 0.391492 0.141299 3.15258
rclavicle -7.95139e-015 4.85035e-014
rhumerus -35.8483 -15.7597 -80.8478
rradius 34.6371
rwrist 26.8846
rhand 1.01656 -6.87976
rfingers 7.12502
rthumb 26.5637 -35.037
lclavicle -7.95139e-015 4.85035e-014
lhumerus -29.7139 15.9274 73.9096
lradius 20.0176
lwrist -28.7233
lhand -8.42364 8.31884
lfingers 7.12502
lthumb 17.5012 37.5511
rfemur -24.2387 -12.5674 29.2146
rtibia 39.8142
rfoot -33.6807 -2.58339
rtoes -5.43247
lfemur -37.9831 4.41994 -22.5261
ltibia 38.2161
lfoot -13.3051 1.2449
ltoes -7.31375
243
root -2.06041 15.7774 28.2357 -169.195 -30.3915 -176.051
lowerback -7.11313 0.888507 -1.44306
upperback 1.87274 1.38316 -1.41098
thorax 5.94749 0.648247 -0.492823
lowerneck -0.694164 0.440492 -2.59207
upperneck 0.223164 0.470372 7.80627
head 0.163448 0.204936 2.9353
rclavicle 4.87022e-014 -5.725e-014
rhumerus -36.4145 -16.0333 -80.379
rradius 35.2344
rwrist 26.1728
rhand 0.748084 -7.08799
rfingers 7.12502
rthumb 26.3067 -35.2838
lclavicle 4.87022e-014 -5.725e-014
lhumerus -29.8243 15.8862 73.4108
lradius 19.8529
lwrist -28.6044
lhand -7.90068 8.20567
lfingers 7.12502
lthumb 18.0044 37.3923
rfemur -24.485 -12.245 28.8926
rtibia 41.3229
rfoot -33.9883 -3.76468
rtoes -6.97952
lfemur -37.6712 3.84511 -22.7223
ltibia 38.3653
lfoot -13.4062 -0.0241589
ltoes -7.63084
244
root -2.11289 15.7759 28.1491 -169.062 -31.5058 -176.292
lowerback -7.41869 0.896836 -1.74911
upperback 1.77601 1.43242 -1.51581
thorax 6.01573 0.661732 -0.420278
lowerneck -0.733243 0.633806 -2.6885
upperneck 0.397559 0.713801 8.04138
head 0.210373 0.328606 3.03486
rclavicle 3.95581e-014 3.97569e-014
rhumerus -37.0434 -15.9605 -79.9132
rradius 35.9396
rwrist 25.2521
rhand 0.980498 -7.09302
rfingers 7.12502
rthumb 26.5292 -35.2554
lclavicle 3.95581e-014 3.97569e-014
lhumerus -29.8864 15.634 73.195
lradius 19.8245
lwrist -28.2512
lhand -7.44049 8.33301
lfingers 7.12502
lthumb 18.4471 37.4783
rfemur -25.1153 -11.636 28.5055
rtibia 43.381
rfoot -34.1474 -4.8945
rtoes -7.94322
lfemur -37.2911 3.46345 -22.9717
ltibia 38.3447
lfoot -13.5464 -1.25186
ltoes -8.14686
